<svg xmlns="http://www.w3.org/2000/svg" width="52" height="52" fill="none"><mask id="a" width="52" height="52" x="0" y="0" maskUnits="userSpaceOnUse" style="mask-type:alpha"><path fill="#D9D9D9" d="M0 0h52v52H0z"/></mask><g mask="url(#a)"><path fill="#081646" d="M6.615 42c-1.01 0-1.865-.337-2.565-1.011A3.299 3.299 0 0 1 3 38.519V13.481c0-.973.35-1.797 1.05-2.47C4.75 10.336 5.605 10 6.616 10h38.769c1.01 0 1.865.337 2.565 1.011.7.674 1.05 1.498 1.05 2.47v25.037c0 .973-.35 1.797-1.05 2.47-.7.675-1.555 1.012-2.566 1.012H6.616Zm26.07-2.889h12.7a.598.598 0 0 0 .422-.185.558.558 0 0 0 .193-.408V13.482a.558.558 0 0 0-.193-.408.598.598 0 0 0-.422-.185H6.614a.598.598 0 0 0-.423.185.557.557 0 0 0-.192.408v25.036a.56.56 0 0 0 .192.408.598.598 0 0 0 .423.185h.7c1.4-2.074 3.218-3.716 5.455-4.926 2.235-1.21 4.645-1.815 7.23-1.815 2.585 0 4.995.605 7.23 1.815 2.236 1.21 4.055 2.852 5.454 4.926ZM20 30.074c1.526 0 2.824-.515 3.894-1.546 1.07-1.03 1.606-2.28 1.606-3.75 0-1.47-.535-2.72-1.606-3.75-1.07-1.03-2.368-1.546-3.894-1.546-1.526 0-2.824.515-3.894 1.546-1.07 1.03-1.606 2.28-1.606 3.75 0 1.47.535 2.72 1.606 3.75 1.07 1.03 2.368 1.546 3.894 1.546Zm-8.9 9.037h17.8a12.148 12.148 0 0 0-4.034-2.84A12.029 12.029 0 0 0 20 35.258c-1.7 0-3.317.337-4.85 1.011a12.536 12.536 0 0 0-4.05 2.841ZM20 27.185c-.695 0-1.285-.234-1.771-.702a2.28 2.28 0 0 1-.729-1.705c0-.67.243-1.238.729-1.706.486-.467 1.076-.701 1.771-.701.695 0 1.285.234 1.771.701a2.28 2.28 0 0 1 .729 1.706 2.28 2.28 0 0 1-.729 1.705c-.486.468-1.076.702-1.771.702Zm16.807-4.978v2.349c0 .33.113.605.339.822.226.217.51.326.854.326s.628-.109.854-.326c.226-.217.339-.491.339-.822v-2.349l2.111 1.174c.29.156.593.195.91.117.316-.078.555-.256.717-.535.161-.28.202-.571.121-.876a1.07 1.07 0 0 0-.556-.69l-2.111-1.175 2.111-1.174a1.07 1.07 0 0 0 .556-.69c.08-.305.04-.597-.121-.876a1.099 1.099 0 0 0-.717-.536 1.237 1.237 0 0 0-.91.117l-2.111 1.174V15.89c0-.331-.113-.605-.339-.822A1.182 1.182 0 0 0 38 14.74c-.344 0-.628.108-.854.326a1.093 1.093 0 0 0-.339.822v2.348l-2.111-1.174a1.237 1.237 0 0 0-.91-.117 1.099 1.099 0 0 0-.717.536c-.161.279-.202.57-.121.876.081.304.266.535.556.69l2.111 1.174-2.111 1.175a1.07 1.07 0 0 0-.556.69c-.08.305-.04.597.121.876.162.279.4.457.717.535.317.078.62.039.91-.117l2.111-1.174Z"/></g></svg>