<svg xmlns="http://www.w3.org/2000/svg" width="52" height="52" fill="none"><mask id="a" width="52" height="52" x="0" y="0" maskUnits="userSpaceOnUse" style="mask-type:alpha"><path fill="#D9D9D9" d="M0 0h52v52H0z"/></mask><g mask="url(#a)"><path fill="#081646" d="m33.583 37.835 11.142-11.141c.3-.3.677-.454 1.131-.46a1.53 1.53 0 0 1 1.152.46c.314.314.471.694.471 1.142 0 .447-.157.827-.47 1.141L34.953 41.031c-.392.392-.849.588-1.37.588-.523 0-.98-.196-1.372-.588l-5.946-5.946c-.3-.3-.453-.677-.46-1.13a1.532 1.532 0 0 1 .46-1.153c.315-.314.695-.47 1.142-.47.447 0 .828.156 1.142.47l5.033 5.033ZM11.5 44.42c-1.077 0-2-.384-2.766-1.15-.767-.768-1.15-1.69-1.15-2.767v-29c0-1.077.383-1.999 1.15-2.766.767-.767 1.689-1.15 2.766-1.15h9.546c.3-1.056.913-1.931 1.84-2.625A5.065 5.065 0 0 1 26 3.919c1.195 0 2.25.347 3.164 1.042.916.694 1.523 1.569 1.824 2.624H40.5c1.077 0 2 .384 2.766 1.151.767.767 1.15 1.69 1.15 2.766v8.542c0 .46-.155.846-.467 1.158a1.573 1.573 0 0 1-1.158.467 1.57 1.57 0 0 1-1.157-.467 1.574 1.574 0 0 1-.467-1.158v-8.542c0-.167-.07-.32-.209-.458a.636.636 0 0 0-.458-.209h-4.75v3.709c0 .555-.187 1.02-.56 1.395-.374.375-.838.563-1.39.563H18.2c-.553 0-1.016-.188-1.39-.563-.373-.375-.56-.84-.56-1.395v-3.709H11.5c-.167 0-.32.07-.458.209a.636.636 0 0 0-.209.458v29c0 .167.07.32.209.458a.636.636 0 0 0 .458.209h10.708c.46 0 .847.156 1.158.467.312.312.467.698.467 1.158 0 .461-.155.847-.467 1.158a1.573 1.573 0 0 1-1.158.467H11.5Zm14.504-33.333c.555 0 1.02-.188 1.394-.565.373-.376.56-.842.56-1.398 0-.555-.188-1.02-.564-1.394-.376-.373-.842-.56-1.398-.56-.556 0-1.02.188-1.394.564-.373.376-.56.842-.56 1.398 0 .556.188 1.02.564 1.394.376.374.842.56 1.398.56Z"/></g></svg>