<svg xmlns="http://www.w3.org/2000/svg" width="52" height="52" fill="none"><mask id="a" width="52" height="52" x="0" y="0" maskUnits="userSpaceOnUse" style="mask-type:alpha"><path fill="#D9D9D9" d="M0 0h52v52H0z"/></mask><g mask="url(#a)"><path fill="#081646" d="M0 36v-.951c0-2.213 1.114-3.67 3.342-4.371 2.228-.701 4.137-1.052 5.728-1.052 1.59 0 3.5.35 5.728 1.052 2.228.701 3.342 2.158 3.342 4.371V36H0Zm9.07-10.198c-1.175 0-2.175-.434-2.998-1.302-.823-.868-1.235-1.921-1.235-3.16 0-1.238.412-2.292 1.235-3.16.823-.868 1.823-1.302 2.998-1.302 1.175 0 2.174.434 2.998 1.302.823.868 1.234 1.922 1.234 3.16 0 1.239-.411 2.292-1.234 3.16-.824.868-1.823 1.302-2.998 1.302Zm11.749 3.83c-.385 0-.721-.153-1.01-.457a1.496 1.496 0 0 1-.432-1.064c0-.222.142-.578.428-1.069.306-.44.513-.933.618-1.475a8.606 8.606 0 0 0 .159-1.648c0-.556-.057-1.1-.17-1.633a3.757 3.757 0 0 0-.63-1.436 2.56 2.56 0 0 1-.31-.53 1.461 1.461 0 0 1-.118-.58c0-.436.136-.799.409-1.086.273-.288.621-.432 1.044-.432.26 0 .497.08.708.238.212.158.395.349.55.57.447.7.792 1.47 1.035 2.308.244.84.365 1.698.365 2.576a9.37 9.37 0 0 1-.353 2.577 9.269 9.269 0 0 1-1.023 2.33 2.887 2.887 0 0 1-.547.567 1.138 1.138 0 0 1-.723.243Zm4.93 5.211c-.413 0-.763-.144-1.05-.432-.286-.288-.429-.652-.429-1.092 0-.203.04-.397.119-.58.079-.183.182-.358.309-.524a12.467 12.467 0 0 0 2.174-3.952c.473-1.428.71-2.886.71-4.373 0-1.488-.237-2.939-.71-4.354a12.222 12.222 0 0 0-2.174-3.908 2.922 2.922 0 0 1-.31-.507 1.303 1.303 0 0 1-.118-.559c0-.44.136-.81.408-1.11A1.332 1.332 0 0 1 25.712 13c.23 0 .445.052.642.155.198.103.375.244.53.424a15.378 15.378 0 0 1 2.7 4.892c.588 1.772.881 3.578.881 5.416 0 1.838-.301 3.647-.905 5.425a16.559 16.559 0 0 1-2.676 4.927c-.155.18-.325.326-.509.437a1.185 1.185 0 0 1-.626.167ZM33.861 36v-.951c0-2.213 1.113-3.67 3.341-4.371 2.228-.701 4.138-1.052 5.728-1.052 1.59 0 3.5.35 5.728 1.052 2.228.701 3.342 2.158 3.342 4.371V36H33.86Zm9.07-10.198c-1.176 0-2.175-.434-2.999-1.302-.823-.868-1.234-1.921-1.234-3.16 0-1.238.411-2.292 1.234-3.16.824-.868 1.823-1.302 2.998-1.302 1.175 0 2.175.434 2.998 1.302.823.868 1.235 1.922 1.235 3.16 0 1.239-.412 2.292-1.235 3.16-.823.868-1.823 1.302-2.998 1.302Z"/></g></svg>