<svg xmlns="http://www.w3.org/2000/svg" width="36" height="33" fill="none"><path fill="#FF6464" d="M16.625 3.31A17.796 17.796 0 0 0 7 .5a17.847 17.847 0 0 0-5.958 1.018 1.375 1.375 0 0 0-.917 1.296v26.125a1.375 1.375 0 0 0 1.833 1.296A15.102 15.102 0 0 1 7 29.375a15.05 15.05 0 0 1 9.625 3.458V3.31Zm2.75 29.523A15.06 15.06 0 0 1 29 29.375c1.771 0 3.465.304 5.042.862a1.374 1.374 0 0 0 1.833-1.298V2.814a1.374 1.374 0 0 0-.917-1.296A17.847 17.847 0 0 0 29 .5a17.796 17.796 0 0 0-9.625 2.81v29.523Z"/></svg>